<svg width="359" height="359" viewBox="0 0 359 359" fill="none" xmlns="http://www.w3.org/2000/svg">
<circle cx="179.5" cy="179.5" r="178.5" stroke="white" stroke-width="2"/>
<g clip-path="url(#clip0_190_9303)">
<path d="M75.0109 177.478C75.0109 161.105 74.9753 144.732 75.0109 128.359C75.0851 100.86 95.5664 76.6646 122.659 71.931C126.148 71.3141 129.683 71.0023 133.226 70.9992C165.407 71.017 197.588 71.017 229.769 70.9992C237.448 70.9199 245.066 72.3761 252.174 75.2823C259.283 78.1885 265.739 82.4861 271.164 87.9225C276.588 93.359 280.872 99.8248 283.763 106.94C286.654 114.055 288.094 121.677 287.999 129.357C287.969 161.458 287.961 193.559 287.975 225.66C287.975 254.15 268.093 277.948 240.084 283.088C237.158 283.653 234.188 283.951 231.208 283.978C198.059 283.978 164.91 284.041 131.763 283.952C104.846 283.88 80.4265 262.985 75.9457 236.435C75.3179 232.786 75.0012 229.09 74.9991 225.386C75.0287 209.416 75.0327 193.447 75.0109 177.478ZM278.298 177.493C278.298 161.683 278.298 145.873 278.298 130.063C278.338 126.271 277.939 122.487 277.112 118.786C271.77 95.8806 252.71 80.7214 229.146 80.6918C197.366 80.6542 165.586 80.6591 133.805 80.7066C131.064 80.6707 128.325 80.8692 125.618 81.3002C101.127 85.6241 84.6966 105.211 84.667 130.048C84.6432 161.668 84.6432 193.288 84.667 224.906C84.6281 228.774 85.0434 232.634 85.9044 236.406C91.323 259.192 110.309 274.241 133.799 274.274C165.58 274.315 197.361 274.315 229.14 274.274C232.929 274.305 236.708 273.893 240.401 273.045C263.078 267.659 278.177 248.674 278.26 225.381C278.343 209.435 278.298 193.46 278.298 177.493V177.493Z" fill="white"/>
<path d="M195.81 178.376C195.68 185.267 194.784 191.434 191.736 197.102C186.3 207.207 177.454 211.374 166.394 211.03C150.649 210.54 140.616 200.797 138.838 184.964C138.129 178.64 138.411 172.461 140.197 166.344C144.307 152.26 156.222 145.555 170.133 146.757C186.116 148.146 193.932 159.575 195.487 173.381C195.692 175.23 195.742 177.088 195.81 178.376ZM148.299 179.097C148.391 182.207 148.672 185.406 149.589 188.516C152.023 196.773 158.059 201.678 166.32 202.126C174.068 202.548 180.819 198.381 183.721 190.893C186.926 182.614 186.947 174.176 183.356 166.006C180.442 159.37 175.106 155.916 167.813 155.699C160.133 155.474 154.495 158.806 151.035 165.653C148.916 169.831 148.364 174.369 148.299 179.097V179.097Z" fill="white"/>
<path d="M229.117 211.107C223.556 211.041 218.242 210.05 213.523 206.89C209.209 203.996 206.761 199.901 205.808 194.841C205.577 193.615 205.677 192.799 207.271 192.986C208.235 193.075 209.206 193.075 210.17 192.986C213.081 192.784 215.868 192.544 216.547 196.547C216.746 197.734 218.031 198.601 219.061 199.399C224.224 203.394 234.017 203.607 239.352 199.832C244.687 196.057 244.334 189.362 238.542 186.32C234.367 184.127 229.705 183.477 225.209 182.323C222.485 181.622 219.758 180.975 217.176 179.83C211.221 177.189 207.681 172.761 207.36 166.131C207.063 159.836 209.262 154.631 214.509 150.903C223.96 144.19 239.732 145.41 247.278 153.453C249.753 156.024 251.316 159.336 251.729 162.881C251.878 164.086 251.539 164.484 250.355 164.383C249.39 164.292 248.418 164.292 247.453 164.383C244.533 164.697 242.049 164.614 241.245 160.878C240.898 159.269 239.34 158.073 237.827 157.269C232.316 154.331 226.705 154.322 221.209 157.251C218.262 158.824 216.957 161.507 217.188 164.905C217.396 167.971 219.34 169.582 221.874 170.781C226.565 173.001 231.723 173.606 236.646 175.025C238.878 175.667 241.074 176.429 243.225 177.307C256.634 182.78 254.539 199.969 246.37 206.032C242.008 209.302 236.1 211.148 229.117 211.107Z" fill="white"/>
<path d="M112.138 186.46C112.138 179.373 112.191 172.286 112.096 165.202C112.076 163.498 112.559 162.937 114.251 163.08C115.936 163.227 117.631 163.227 119.316 163.08C121.097 162.923 121.432 163.673 121.426 165.285C121.369 179.38 121.369 193.472 121.426 207.563C121.426 209.047 121.165 209.771 119.482 209.641C117.636 209.494 115.78 209.494 113.933 209.641C112.343 209.771 112.096 209.133 112.111 207.72C112.174 200.633 112.138 193.547 112.138 186.46Z" fill="white"/>
<path d="M116.726 155.177C113.355 155.192 110.82 152.77 110.82 149.538C110.82 146.259 113.271 143.899 116.702 143.899C120.132 143.899 122.654 146.291 122.666 149.511C122.681 152.699 120.073 155.177 116.726 155.177Z" fill="white"/>
</g>
<defs>
<clipPath id="clip0_190_9303">
<rect width="213" height="213" fill="white" transform="translate(75 71)"/>
</clipPath>
</defs>
</svg>
