<svg width="492" height="492" viewBox="0 0 492 492" fill="none" xmlns="http://www.w3.org/2000/svg">
<path d="M241.774 278.709C258.485 278.709 272.032 265.162 272.032 248.45C272.032 231.739 258.485 218.192 241.774 218.192C225.063 218.192 211.516 231.739 211.516 248.45C211.516 265.162 225.063 278.709 241.774 278.709Z" fill="white"/>
<path d="M241.771 186.917C282.399 186.917 320.151 192.75 348.627 202.553C382.936 214.34 403.999 232.244 403.999 248.447C403.999 265.338 381.64 284.336 344.819 296.528C316.991 305.764 280.333 310.584 241.771 310.584C202.236 310.584 164.768 306.047 136.616 296.447C101.01 284.255 79.542 265.014 79.542 248.447C79.542 232.366 99.6737 214.624 133.497 202.837C162.054 192.872 200.738 186.917 241.771 186.917Z" stroke="white"/>
<path d="M188.223 217.866C208.517 182.666 232.416 152.853 255.14 133.126C282.482 109.309 308.528 99.992 322.583 108.093C337.206 116.519 342.513 145.4 334.695 183.395C328.781 212.074 314.644 246.221 295.363 279.639C275.596 313.907 252.993 344.085 230.593 363.649C202.238 388.439 174.856 397.391 160.517 389.128C146.582 381.107 141.276 354.778 147.96 319.619C153.549 289.887 167.727 253.39 188.223 217.866Z" stroke="white"/>
<path d="M188.266 279.718C167.891 244.558 154.038 208.953 148.245 179.424C141.278 143.818 146.22 116.598 160.235 108.497C174.858 100.031 202.484 109.833 231.527 135.596C253.481 155.079 276.003 184.365 295.325 217.783C315.132 252.011 329.998 286.685 335.75 315.85C343.041 352.792 337.127 380.984 322.788 389.288C308.894 397.349 283.416 388.802 256.276 365.47C233.39 345.744 208.843 315.242 188.266 279.718Z" stroke="white"/>
<circle cx="246" cy="246" r="245" stroke="white" stroke-width="2"/>
</svg>
