<svg width="359" height="359" viewBox="0 0 359 359" fill="none" xmlns="http://www.w3.org/2000/svg">
<circle cx="179.5" cy="179.5" r="178.5" stroke="white" stroke-width="2"/>
<g clip-path="url(#clip0_190_9302)">
<path d="M257.001 71.0198C256.086 74.0746 254.316 75.1958 252.934 76.5905C208.752 121.23 164.583 165.877 120.427 210.532C116.835 214.185 114.959 214.098 111.567 210.461C103.197 201.499 94.4471 192.885 85.7086 184.279C83.5259 182.132 83.3532 180.813 85.6261 178.542C120.486 143.489 155.294 108.385 190.049 73.2306C191.226 72.042 192.404 71 194.249 71C214.977 71.0277 235.704 71.0198 257.001 71.0198Z" fill="white"/>
<path d="M166.227 197.647C173.642 187.857 183.107 180.068 191.512 171.236C192.477 170.222 193.836 170.341 195.112 170.341C215.104 170.341 235.098 170.359 255.096 170.396C255.575 170.396 256.054 170.677 256.611 170.856C256.521 173.316 254.526 174.287 253.211 175.61C236.407 192.652 219.584 209.66 202.743 226.634C201.251 228.147 199.167 229.3 198.974 231.808C198.648 231.852 198.317 231.808 198.013 231.681C197.648 229.269 195.591 228.143 194.134 226.59C184.972 216.816 174.788 208.012 166.227 197.647Z" fill="white"/>
<path d="M166.227 197.647C174.789 208.028 184.972 216.816 194.134 226.606C195.591 228.159 197.668 229.285 198.013 231.697C187.27 242.554 176.523 253.408 165.772 264.262C159.679 260.153 155.263 254.249 150.022 249.206C144.781 244.162 139.701 238.857 134.566 233.655C133.306 232.383 131.63 231.277 133.718 229.205C144.074 218.904 154.364 208.511 164.708 198.186C165.057 197.857 165.713 197.826 166.227 197.647Z" fill="white"/>
<path d="M217.194 250.715L256.45 291.75H234.643C223.75 291.75 212.821 291.204 201.974 291.937C194.123 292.468 188.799 289.69 184.729 283.39C188.489 277.737 193.758 273.485 198.468 268.786C204.624 262.689 210.108 255.838 217.194 250.715Z" fill="white"/>
<path d="M217.193 250.715C210.127 255.838 204.631 262.669 198.48 268.786C193.769 273.497 188.493 277.737 184.74 283.39C181.898 281.108 179.244 278.66 177.085 275.664C180.842 270.011 186.114 265.759 190.825 261.064C196.965 254.943 202.453 248.116 209.534 242.989L217.193 250.715Z" fill="white"/>
<path d="M209.555 242.989C202.488 248.116 196.993 254.943 190.845 261.064C186.134 265.775 180.854 270.01 177.105 275.664C175.017 274.103 173.074 272.384 171.637 270.157C172.422 267.994 174.259 266.718 175.759 265.173C184.974 255.695 194.205 246.235 203.454 236.792C205.798 238.521 207.857 240.612 209.555 242.989V242.989Z" fill="white"/>
<path d="M203.427 236.793C194.188 246.249 184.956 255.709 175.731 265.173C174.231 266.718 172.386 267.994 171.609 270.157L168.327 266.841C169.112 264.686 170.949 263.406 172.449 261.861C181.664 252.375 190.892 242.918 200.133 233.488L203.427 236.793Z" fill="white"/>
<path d="M200.133 233.488C190.9 242.942 181.668 252.399 172.437 261.86C170.938 263.406 169.097 264.685 168.315 266.841L165.764 264.261L198.001 231.697C198.305 231.824 198.637 231.868 198.963 231.824L200.133 233.488Z" fill="white"/>
</g>
<defs>
<clipPath id="clip0_190_9302">
<rect width="173" height="221" fill="white" transform="translate(84 71)"/>
</clipPath>
</defs>
</svg>
