<svg xmlns="http://www.w3.org/2000/svg" xmlns:xlink="http://www.w3.org/1999/xlink" width="191.554" height="52.573" viewBox="0 0 191.554 52.573">
  <defs>
    <clipPath id="clip-path">
      <rect id="Rectangle_1544" data-name="Rectangle 1544" width="191.554" height="52.574" fill="#667596"/>
    </clipPath>
  </defs>
  <g id="Group_2600" data-name="Group 2600" transform="translate(-300 -10290.682)">
    <g id="Group_2439" data-name="Group 2439" transform="translate(300 10290.682)">
      <g id="Group_2438" data-name="Group 2438" transform="translate(0 0)" clip-path="url(#clip-path)">
        <path id="Path_7809" data-name="Path 7809" d="M110.882,25.787a13.055,13.055,0,0,0,3.376,1.177,19.75,19.75,0,0,0,4.5.513,14.545,14.545,0,0,0,4.144-.562,9.579,9.579,0,0,0,3.251-1.64,7.773,7.773,0,0,0,2.124-2.582,7.425,7.425,0,0,0,.768-3.4,6.606,6.606,0,0,0-1.359-4.095,8.941,8.941,0,0,0-4.529-2.814l-4.144-1.33a8.73,8.73,0,0,1-3.223-1.611,2.777,2.777,0,0,1-.869-2.072,2.8,2.8,0,0,1,1.382-2.611,7.675,7.675,0,0,1,3.889-.82,13.591,13.591,0,0,1,5.628,1.128,3.127,3.127,0,0,0,1.124.359c.444,0,.664-.31.664-.925V3.121a1.655,1.655,0,0,0-.252-.971,2.865,2.865,0,0,0-.869-.719,7.842,7.842,0,0,0-1.229-.51Q124.49.665,123.6.46A18.585,18.585,0,0,0,121.7.127,15.321,15.321,0,0,0,119.734,0a13.065,13.065,0,0,0-3.686.51,9.284,9.284,0,0,0-3.042,1.509,7.852,7.852,0,0,0-2.1,2.405,6.484,6.484,0,0,0-.794,3.248,6.927,6.927,0,0,0,1.46,4.248,9.028,9.028,0,0,0,4.68,2.967l4.245,1.33a7.534,7.534,0,0,1,2.944,1.536,2.829,2.829,0,0,1,.791,2.048,3.1,3.1,0,0,1-1.51,2.762,7.89,7.89,0,0,1-4.271.971,17.127,17.127,0,0,1-3.48-.356,15.632,15.632,0,0,1-3.222-1.026c-.307-.134-.556-.235-.742-.3a1.54,1.54,0,0,0-.539-.1c-.443,0-.663.3-.663.919V24.15a1.7,1.7,0,0,0,1.075,1.637" transform="translate(-44.815 0)" fill="#667596"/>
        <path id="Path_7810" data-name="Path 7810" d="M19.163,11.588a21.927,21.927,0,0,0-3.094-.229A10.651,10.651,0,0,0,8.9,13.637a7.521,7.521,0,0,0-2.66,6.013,7.5,7.5,0,0,0,2.15,5.628,8,8,0,0,0,5.833,2.1,10.8,10.8,0,0,0,8.595-4.045q.461.977.9,1.715A6.676,6.676,0,0,0,24.767,26.4a1.224,1.224,0,0,0,.869.412,1.479,1.479,0,0,0,.768-.255l1.843-1.229a1.125,1.125,0,0,0,.562-.872,1.386,1.386,0,0,0-.2-.663,13.452,13.452,0,0,1-.948-2.1,8.245,8.245,0,0,1-.333-2.608V9.569q0-4.812-2.431-7.189T17.247,0a18.023,18.023,0,0,0-4.558.559A19.074,19.074,0,0,0,9.009,1.9a2.047,2.047,0,0,0-.82.614,1.908,1.908,0,0,0-.206,1.02V4.961c0,.614.206.925.614.925a2.085,2.085,0,0,0,.461-.078,7.908,7.908,0,0,0,1.023-.382,22,22,0,0,1,3.147-1,13.8,13.8,0,0,1,3.147-.382q3.377,0,4.758,1.356t1.382,4.68v2.15q-1.738-.408-3.353-.64m3.353,5.143a9.864,9.864,0,0,1-.281,2.533,4.674,4.674,0,0,1-1,1.869A6.375,6.375,0,0,1,18.473,23a9.384,9.384,0,0,1-3.019.539,4.214,4.214,0,0,1-3.069-1.049,4.148,4.148,0,0,1-1.075-3.1,4.121,4.121,0,0,1,1.434-3.376,6.739,6.739,0,0,1,4.347-1.177,21.256,21.256,0,0,1,2.739.18,25.582,25.582,0,0,1,2.686.484Z" transform="translate(-2.549 -0.001)" fill="#667596"/>
        <path id="Path_7811" data-name="Path 7811" d="M53.641,25.8a2.261,2.261,0,0,0,.614,1.151,1.822,1.822,0,0,0,1.127.281h2.507a1.82,1.82,0,0,0,1.177-.3,2.244,2.244,0,0,0,.562-1.18l4.5-18.829,4.552,18.829a2.222,2.222,0,0,0,.565,1.18,1.809,1.809,0,0,0,1.177.3h2.5a1.816,1.816,0,0,0,1.127-.281,2.257,2.257,0,0,0,.614-1.151L81.728,3.186a6.218,6.218,0,0,0,.209-.716,2.521,2.521,0,0,0,.049-.461.633.633,0,0,0-.716-.716H78.558a1.81,1.81,0,0,0-1.15.281,2.449,2.449,0,0,0-.588,1.151l-5.065,19.6-4.608-19.6a2.056,2.056,0,0,0-.562-1.151,1.931,1.931,0,0,0-1.174-.281H63.056a1.939,1.939,0,0,0-1.177.281,2.052,2.052,0,0,0-.562,1.151L56.762,22.068,51.85,2.726a2.444,2.444,0,0,0-.588-1.151,1.824,1.824,0,0,0-1.153-.281H47.246a.633.633,0,0,0-.716.716,5.154,5.154,0,0,0,.255,1.177Z" transform="translate(-18.99 -0.528)" fill="#667596"/>
        <path id="Path_7812" data-name="Path 7812" d="M78.077,63.237a86.545,86.545,0,0,1-33.19,6.792A87.5,87.5,0,0,1,1.377,58.482c-1.087-.626-1.889.484-.988,1.3A64.423,64.423,0,0,0,43.875,76.367c12.017,0,25.976-3.776,35.6-10.878,1.59-1.179.228-2.941-1.4-2.251" transform="translate(0 -23.793)" fill="#667596"/>
        <path id="Path_7813" data-name="Path 7813" d="M121.264,58.04c-.849.594-.7,1.417.24,1.3,3.1-.373,10.009-1.2,11.24.374s-1.371,8.076-2.533,10.976c-.35.878.406,1.235,1.2.568,5.164-4.321,6.5-13.37,5.442-14.68s-10.078-2.411-15.589,1.458" transform="translate(-49.263 -22.599)" fill="#667596"/>
        <path id="Path_7814" data-name="Path 7814" d="M186.832,23.28a.308.308,0,0,1-.348-.348V7.142a.31.31,0,0,1,.348-.351h.443a.343.343,0,0,1,.394.351l.1.953a8.02,8.02,0,0,1,2.08-1.257,5.739,5.739,0,0,1,2.083-.394,4.337,4.337,0,0,1,3.558,1.614,6.909,6.909,0,0,1,1.3,4.433,7.044,7.044,0,0,1-1.371,4.559,4.507,4.507,0,0,1-3.7,1.7,5.719,5.719,0,0,1-3.906-1.58v5.767a.308.308,0,0,1-.35.348Zm4.746-5.744a3.407,3.407,0,0,0,2.869-1.246,5.967,5.967,0,0,0,.968-3.709q0-4.929-3.744-4.929a6.319,6.319,0,0,0-3.86,1.49v6.812a7.3,7.3,0,0,0,1.858,1.2,4.872,4.872,0,0,0,1.909.382" transform="translate(-76.109 -2.63)" fill="#667596"/>
        <path id="Path_7815" data-name="Path 7815" d="M211.229,18.745a3.5,3.5,0,0,1-2.547-.916,3.274,3.274,0,0,1-.942-2.454A3.307,3.307,0,0,1,208.9,12.7a4.76,4.76,0,0,1,3.164-.98,11.54,11.54,0,0,1,3.327.536V10.3a2.661,2.661,0,0,0-.675-2.037,3.283,3.283,0,0,0-2.231-.614,11.117,11.117,0,0,0-3.4.582,1.167,1.167,0,0,1-.351.07c-.153,0-.232-.1-.232-.3V7.629a.516.516,0,0,1,.07-.289.5.5,0,0,1,.234-.177,10.573,10.573,0,0,1,3.883-.719,4.517,4.517,0,0,1,3.031.861,3.251,3.251,0,0,1,.991,2.6v8.232a.308.308,0,0,1-.347.351h-.49a.335.335,0,0,1-.373-.351l-.09-1a6.6,6.6,0,0,1-4.187,1.606m.185-1.209a5.716,5.716,0,0,0,1.909-.362,10.644,10.644,0,0,0,2.069-1.009V13.256a11.687,11.687,0,0,0-3.022-.417q-3.256,0-3.257,2.51a2.168,2.168,0,0,0,.579,1.631,2.414,2.414,0,0,0,1.721.556" transform="translate(-84.784 -2.63)" fill="#667596"/>
        <path id="Path_7816" data-name="Path 7816" d="M229.305,18.665a.31.31,0,0,1-.35-.35v-11a.311.311,0,0,1,.35-.35h.443a.343.343,0,0,1,.394.35l.119,1.348a5.86,5.86,0,0,1,1.729-1.386,4.418,4.418,0,0,1,1.918-.405c.249,0,.449.009.606.023a.333.333,0,0,1,.347.374v.579a.256.256,0,0,1-.069.173.234.234,0,0,1-.186.085c-.124,0-.24-.006-.347-.012s-.272-.015-.49-.015a4.339,4.339,0,0,0-1.895.4,5.052,5.052,0,0,0-1.594,1.278v8.557a.308.308,0,0,1-.348.35Z" transform="translate(-93.443 -2.806)" fill="#667596"/>
        <path id="Path_7817" data-name="Path 7817" d="M245.9,16.528a2.811,2.811,0,0,1-2.092-.733,2.888,2.888,0,0,1-.721-2.127V5.856h-1.834a.309.309,0,0,1-.35-.351V5.274A.438.438,0,0,1,240.973,5a.391.391,0,0,1,.281-.119l1.88-.162.165-3.069a.465.465,0,0,1,.1-.266.332.332,0,0,1,.246-.081h.417a.306.306,0,0,1,.347.347V4.691h3.373a.308.308,0,0,1,.348.347v.466a.309.309,0,0,1-.348.351h-3.373V13.6a1.838,1.838,0,0,0,.406,1.345,1.909,1.909,0,0,0,1.362.394,5.381,5.381,0,0,0,1.188-.116c.168-.029.3-.058.406-.078a.977.977,0,0,1,.22-.038c.171,0,.257.1.257.281v.348c0,.263-.086.429-.257.487a6.467,6.467,0,0,1-2.092.3" transform="translate(-98.32 -0.53)" fill="#667596"/>
        <path id="Path_7818" data-name="Path 7818" d="M257.829,18.487a.31.31,0,0,1-.35-.35v-11a.311.311,0,0,1,.35-.35h.466a.344.344,0,0,1,.394.35l.093,1a9.643,9.643,0,0,1,2.4-1.258,7.4,7.4,0,0,1,2.44-.443,3.511,3.511,0,0,1,2.594.9,3.582,3.582,0,0,1,.895,2.64v8.16a.308.308,0,0,1-.347.35h-.626a.311.311,0,0,1-.353-.35v-7.6a3.377,3.377,0,0,0-.577-2.2,2.325,2.325,0,0,0-1.863-.684,8.037,8.037,0,0,0-4.535,1.486v9a.308.308,0,0,1-.348.35Z" transform="translate(-105.084 -2.628)" fill="#667596"/>
        <path id="Path_7819" data-name="Path 7819" d="M284.334,18.835a5.272,5.272,0,0,1-4.161-1.568,6.834,6.834,0,0,1-1.4-4.662,6.719,6.719,0,0,1,1.406-4.547,4.949,4.949,0,0,1,3.944-1.617,4.236,4.236,0,0,1,3.245,1.209,4.921,4.921,0,0,1,1.128,3.465,7.832,7.832,0,0,1-.1,1.4.379.379,0,0,1-.394.351h-7.882a5.346,5.346,0,0,0,1.067,3.6,4.138,4.138,0,0,0,3.236,1.162,8.754,8.754,0,0,0,3.182-.579,1.426,1.426,0,0,1,.42-.116.207.207,0,0,1,.162.079.3.3,0,0,1,.072.2v.348a.486.486,0,0,1-.257.489,8.542,8.542,0,0,1-3.674.788m2.86-7.044c.014-.217.026-.472.026-.768a3.569,3.569,0,0,0-.817-2.536,3.15,3.15,0,0,0-2.4-.858q-3.673,0-3.88,4.161Z" transform="translate(-113.776 -2.629)" fill="#667596"/>
        <path id="Path_7820" data-name="Path 7820" d="M300.5,18.665a.31.31,0,0,1-.35-.35v-11a.311.311,0,0,1,.35-.35h.443a.343.343,0,0,1,.394.35l.119,1.348a5.823,5.823,0,0,1,1.729-1.386,4.418,4.418,0,0,1,1.918-.405c.249,0,.449.009.606.023a.333.333,0,0,1,.347.374v.579a.256.256,0,0,1-.069.173.234.234,0,0,1-.186.085c-.124,0-.24-.006-.347-.012s-.272-.015-.49-.015a4.339,4.339,0,0,0-1.895.4,5.019,5.019,0,0,0-1.594,1.278v8.557a.308.308,0,0,1-.348.35Z" transform="translate(-122.498 -2.806)" fill="#667596"/>
        <path id="Path_7821" data-name="Path 7821" d="M186.832,62.133a.31.31,0,0,1-.35-.35v-11a.311.311,0,0,1,.35-.35h.466a.344.344,0,0,1,.394.35l.1,1a9.575,9.575,0,0,1,2.393-1.258,7.4,7.4,0,0,1,2.44-.443,3.511,3.511,0,0,1,2.594.9,3.582,3.582,0,0,1,.895,2.64v8.16a.308.308,0,0,1-.347.35h-.626a.311.311,0,0,1-.353-.35v-7.6a3.359,3.359,0,0,0-.579-2.2,2.31,2.31,0,0,0-1.86-.684,8.036,8.036,0,0,0-4.535,1.486v9a.308.308,0,0,1-.348.35Z" transform="translate(-76.108 -20.441)" fill="#667596"/>
        <path id="Path_7822" data-name="Path 7822" d="M213.338,62.481a5.272,5.272,0,0,1-4.161-1.568,6.834,6.834,0,0,1-1.4-4.662,6.719,6.719,0,0,1,1.406-4.547,4.949,4.949,0,0,1,3.944-1.617,4.242,4.242,0,0,1,3.246,1.209,4.924,4.924,0,0,1,1.127,3.465,7.833,7.833,0,0,1-.1,1.4.379.379,0,0,1-.394.351h-7.882a5.33,5.33,0,0,0,1.067,3.6,4.135,4.135,0,0,0,3.233,1.162,8.759,8.759,0,0,0,3.185-.579,1.426,1.426,0,0,1,.42-.116.208.208,0,0,1,.162.079.3.3,0,0,1,.072.2V61.2a.486.486,0,0,1-.257.489,8.542,8.542,0,0,1-3.674.788m2.86-7.044c.014-.217.026-.472.026-.768a3.569,3.569,0,0,0-.817-2.536,3.15,3.15,0,0,0-2.4-.858q-3.673,0-3.88,4.161Z" transform="translate(-84.801 -20.442)" fill="#667596"/>
        <path id="Path_7823" data-name="Path 7823" d="M231.8,60.174a2.811,2.811,0,0,1-2.092-.733,2.888,2.888,0,0,1-.721-2.127V49.5h-1.837a.308.308,0,0,1-.347-.351V48.92a.438.438,0,0,1,.069-.278.389.389,0,0,1,.278-.119l1.883-.162.165-3.069a.465.465,0,0,1,.1-.266.332.332,0,0,1,.246-.081h.417a.306.306,0,0,1,.347.347v3.046h3.373a.308.308,0,0,1,.348.347v.466a.309.309,0,0,1-.348.351h-3.373v7.745a1.838,1.838,0,0,0,.406,1.345,1.913,1.913,0,0,0,1.365.394,5.372,5.372,0,0,0,1.185-.116c.168-.029.3-.058.406-.078a.977.977,0,0,1,.22-.038c.171,0,.257.1.257.281v.348c0,.263-.086.429-.257.487a6.467,6.467,0,0,1-2.092.3" transform="translate(-92.562 -18.343)" fill="#667596"/>
        <path id="Path_7824" data-name="Path 7824" d="M245.134,62.375a.44.44,0,0,1-.444-.324l-3.7-10.815a1.2,1.2,0,0,1-.093-.35c0-.136.093-.208.281-.208h.745a.382.382,0,0,1,.394.3l3.185,9.861L248.321,51a.436.436,0,0,1,.44-.324h.858a.435.435,0,0,1,.44.324l2.793,9.907,3.258-9.927a.38.38,0,0,1,.394-.3h.7c.186,0,.278.072.278.208a1.324,1.324,0,0,1-.092.35L253.6,62.05a.441.441,0,0,1-.443.324h-.765a.435.435,0,0,1-.443-.324l-2.814-9.884-2.791,9.884a.436.436,0,0,1-.44.324Z" transform="translate(-98.318 -20.683)" fill="#667596"/>
        <path id="Path_7825" data-name="Path 7825" d="M276.941,62.484a4.987,4.987,0,0,1-3.979-1.637,6.758,6.758,0,0,1-1.417-4.57,6.7,6.7,0,0,1,1.417-4.558,5.67,5.67,0,0,1,7.954,0,6.7,6.7,0,0,1,1.417,4.558,6.758,6.758,0,0,1-1.417,4.57,4.977,4.977,0,0,1-3.976,1.637m0-1.209q4.021,0,4.022-5,0-4.977-4.022-4.978t-4.025,4.978q0,5,4.025,5" transform="translate(-110.825 -20.443)" fill="#667596"/>
        <path id="Path_7826" data-name="Path 7826" d="M295.229,62.311a.31.31,0,0,1-.35-.35v-11a.311.311,0,0,1,.35-.35h.443a.345.345,0,0,1,.394.35l.116,1.348a5.868,5.868,0,0,1,1.732-1.386,4.419,4.419,0,0,1,1.918-.405c.249,0,.449.009.606.023a.333.333,0,0,1,.347.374V51.5a.256.256,0,0,1-.069.173.234.234,0,0,1-.186.085c-.124,0-.24-.006-.347-.012s-.272-.015-.49-.015a4.339,4.339,0,0,0-1.895.4,5.052,5.052,0,0,0-1.594,1.278V61.96a.308.308,0,0,1-.348.35Z" transform="translate(-120.348 -20.619)" fill="#667596"/>
        <path id="Path_7827" data-name="Path 7827" d="M308.745,58.574a.31.31,0,0,1-.35-.35V41.715a.31.31,0,0,1,.35-.35h.629a.308.308,0,0,1,.348.35V52.089l5.581-4.978a.8.8,0,0,1,.582-.234h.838c.183,0,.281.072.281.208,0,.081-.087.2-.258.35l-5.627,4.979,6.091,5.627c.139.122.208.226.208.3,0,.154-.09.232-.278.232h-1a.755.755,0,0,1-.513-.208l-5.906-5.512v5.369a.308.308,0,0,1-.348.35Z" transform="translate(-125.865 -16.882)" fill="#667596"/>
      </g>
    </g>
  </g>
</svg>
