<svg xmlns="http://www.w3.org/2000/svg" width="230.561" height="44.834" viewBox="0 0 230.561 44.834">
  <g id="Group_2602" data-name="Group 2602" transform="translate(-960 -10275.559)">
    <g id="cloudera-seeklogo.com" transform="translate(960 10275.559)">
      <path id="Path_7853" data-name="Path 7853" d="M198.908,10.155a24.576,24.576,0,0,0-6.615.9,16.926,16.926,0,0,0-2.848,1.077,4.311,4.311,0,0,0-.619-.756,4.2,4.2,0,0,0-3.024-1.216h-4.536V44.522h8.818V26.68c0-3.471.588-4.822,1.766-6.023s2.982-1.791,5.42-1.791h3.8V10.155ZM37.9,0H33.362V40.294A4.021,4.021,0,0,0,34.624,43.3a4.2,4.2,0,0,0,3.024,1.218h4.536V4.227a4.034,4.034,0,0,0-1.258-3.011A4.212,4.212,0,0,0,37.9,0ZM60.993,37.545c5.244,0,6.9-5.592,6.9-10.324s-1.659-10.395-6.9-10.395-6.838,5.664-6.838,10.395S55.747,37.545,60.993,37.545ZM61,9.322c9.948,0,15.463,6.668,15.463,17.789,0,11.074-5.515,17.724-15.463,17.724-10.145,0-15.41-6.649-15.41-17.724C45.593,15.99,50.858,9.322,61,9.322ZM15.4,37.545c-5.244,0-6.838-5.592-6.838-10.324S10.154,16.826,15.4,16.826a5.954,5.954,0,0,1,5.534,3.667H30.1C28.256,13.4,23.187,9.322,15.408,9.322,5.263,9.322,0,15.99,0,27.11,0,38.185,5.263,44.834,15.408,44.834c7.779,0,12.838-4.074,14.677-11.143h-6.01a4.347,4.347,0,0,0-2.528.918C19.963,36.131,18.672,37.545,15.4,37.545ZM107.849,11.4a4.031,4.031,0,0,0-3.089-1.281h-4.41V31.653a5.307,5.307,0,0,1-1.827,4.484,6.7,6.7,0,0,1-8.218,0,5.308,5.308,0,0,1-1.829-4.484V14.473a4.338,4.338,0,0,0-1.2-3.074,4.024,4.024,0,0,0-3.087-1.281h-4.41V30.1c0,6.065,1.678,9.818,4.662,11.914a16.635,16.635,0,0,0,9.969,2.816,16.633,16.633,0,0,0,9.971-2.816c2.984-2.1,4.662-5.849,4.662-11.914V14.473A4.337,4.337,0,0,0,107.849,11.4ZM142.667,1.217A4.208,4.208,0,0,0,139.643,0H135.22V12.742a12.235,12.235,0,0,0-8.448-3.419c-9,0-14.211,6.666-14.211,17.787,0,11.076,5.347,17.724,15.654,17.724,10.064,0,15.664-6.594,15.708-17.584h0V4.227A4.032,4.032,0,0,0,142.667,1.217ZM128.206,37.546c-5.328,0-6.949-5.594-6.949-10.324s1.621-10.395,6.949-10.395c5.3,0,6.993,5.6,7.014,10.309v.113C135.214,31.973,133.525,37.546,128.206,37.546Zm49.811-12.437a4.442,4.442,0,0,1-.454,2.008,4.51,4.51,0,0,1-.745,1.065,3.9,3.9,0,0,1-2.961,1.281H155.941c.227,4.091,2.279,8.083,6.712,8.083,3.272,0,4.561-1.417,6.149-2.936a4.366,4.366,0,0,1,2.526-.92h6.012c-1.842,7.069-6.9,11.143-14.681,11.143-10.143,0-15.408-6.647-15.408-17.722,0-11.122,5.265-17.789,15.408-17.789,7.781,0,12.852,4.078,14.69,11.172a23.849,23.849,0,0,1,.662,4.091Zm-15.364-8.281a6.29,6.29,0,0,0-6.338,6.012h12.72A6.232,6.232,0,0,0,162.653,16.827Zm67.908,2.014a8.167,8.167,0,0,0-3.654-7.107q-3.528-2.408-10.586-2.411-6.3,0-9.7,2.919a10.2,10.2,0,0,0-3.578,6.624h8.444a3.4,3.4,0,0,1,2.068-2.054,9.107,9.107,0,0,1,3.15-.51,10.11,10.11,0,0,1,3.589.573,2.471,2.471,0,0,1,1.953,2.474c0,1.359-1.844,2.629-5.542,3.117-4.444.586-7.953,1.073-11.149,3.459-2.052,1.531-3.345,4.339-3.345,7.892,0,3.809,1.165,6.495,3.4,8.188,1.995,1.51,5.235,2.8,10.481,2.8,4.7,0,8.232-1.044,10.584-2.652a8.084,8.084,0,0,0,3.887-7.207Zm-9.473,16.71a7.549,7.549,0,0,1-5.546,1.993c-.731,0-3.047-.166-4.009-1.105A3.3,3.3,0,0,1,210.4,33.81a3.52,3.52,0,0,1,.88-2.384c1.241-1.336,2.606-1.525,5.542-2.18a23.931,23.931,0,0,0,5.559-1.861v2.587c0,2.327.052,4.253-1.292,5.58Z" transform="translate(0)" fill="#667596"/>
    </g>
  </g>
</svg>
