<svg width="281" height="35" viewBox="0 0 281 35" fill="none" xmlns="http://www.w3.org/2000/svg">
<path fill-rule="evenodd" clip-rule="evenodd" d="M33.2744 8.83757C36.0751 13.559 36.1755 20.9931 33.174 25.6137C29.4728 31.8427 22.6681 35.1573 15.366 34.1522C9.66269 33.3488 3.96093 29.1299 1.85854 23.5043C-0.943635 17.0752 1.05835 9.44091 5.95992 4.82032C11.0623 -0.201985 19.5662 -1.30785 25.77 1.80664C28.7715 3.31273 31.5721 5.82388 33.2744 8.83757Z" fill="#94A8B6"/>
<path fill-rule="evenodd" clip-rule="evenodd" d="M33.0736 10.3452C35.3753 15.6685 34.8748 22.8002 31.0731 27.2222C27.3718 31.742 21.9683 34.053 15.766 33.3489C10.6637 32.6462 5.76059 29.2308 3.25961 24.6087C0.557825 19.284 1.25762 11.6497 5.05929 7.02912C9.16067 2.10762 15.4633 0.0974948 21.8679 1.30417C26.5701 2.20693 30.9727 6.02405 33.0736 10.3452Z" fill="white"/>
<path fill-rule="evenodd" clip-rule="evenodd" d="M21.5682 2.20681C19.5677 2.20681 17.0667 1.70428 15.9653 3.7129C15.9653 4.31624 15.9653 4.91958 16.5662 5.2205C18.6671 5.2205 20.0667 2.80865 22.5692 3.91452C27.0706 4.31775 31.4732 7.93327 32.7739 12.2529C33.5741 14.7641 33.9742 17.8771 33.174 20.3882C33.2744 18.5812 33.673 16.1694 31.8733 15.1658C31.2724 14.9657 30.5726 15.1658 30.171 15.6668C29.8713 17.5762 32.173 18.4804 31.7714 20.489C31.4717 25.0103 28.5706 29.3285 24.4678 31.137C21.766 32.2414 18.5652 32.944 15.4633 32.2414C16.9648 32.5423 18.9653 32.2414 20.0652 30.8346C20.1656 30.2327 19.9663 29.5286 19.3654 29.2277C17.4638 29.2277 15.9638 31.3371 13.7625 30.5337C9.76007 30.1304 5.9584 27.6193 3.95791 23.9045C2.45642 20.8893 1.95743 16.7712 3.05732 13.3558C2.75612 15.1643 2.55682 17.4739 3.95791 18.8806C4.25761 19.2824 4.85851 19.2824 5.359 19.1816C5.9584 18.7798 6.1592 17.8756 5.7591 17.3746C4.45841 15.9678 4.25911 13.9576 4.65921 12.0498C5.2601 8.03107 8.56128 4.21394 12.4634 2.90796C15.0647 1.70429 18.6671 1.60348 21.5682 2.20681Z" fill="#94A8B6"/>
<path fill-rule="evenodd" clip-rule="evenodd" d="M16.8645 8.93684C17.266 11.5488 15.0633 13.5574 12.9624 14.7641C12.9624 15.1658 13.3625 15.3659 13.7626 15.4668C16.364 15.6669 15.5638 11.8512 17.9643 12.0513C18.8649 13.6582 15.8635 14.3624 16.863 16.0701C18.1559 15.3609 19.3937 14.5547 20.5657 13.6582C20.3649 11.448 21.0647 9.33857 22.8674 8.1334C23.4668 7.83248 24.3674 7.83247 24.8679 8.23419C25.5677 8.73673 25.4673 9.74029 25.3684 10.4444C24.7675 12.0513 23.4668 12.7555 22.2665 13.9607C22.4673 15.87 24.4678 14.0615 25.3684 15.1658C25.6681 15.8685 24.8679 16.1694 24.3674 16.2702C23.2675 15.9693 22.2665 16.2702 21.3659 16.9728C20.266 17.8771 19.9648 19.0823 19.7655 20.2874C19.7655 22.096 20.4653 24.0053 22.2665 24.7079C23.4668 24.8072 24.4678 24.6071 25.268 23.8022C25.9693 23.2003 26.1686 22.3954 26.1686 21.5919C26.0682 20.7885 25.8689 19.8842 24.9683 19.4825C24.3689 19.2809 23.5672 19.4825 23.2675 20.1866C22.6666 21.1917 24.7675 22.096 23.2675 22.7971C22.3669 22.6978 21.9668 21.7935 21.6671 21.0894C21.6671 20.1851 21.9668 19.3817 22.4673 18.7798C23.2675 18.2773 24.1681 17.8741 25.1691 18.1765C26.5702 18.3781 27.27 19.7834 27.5712 21.0909C27.5712 22.3969 27.3704 23.602 26.5702 24.6071C25.5707 25.7115 24.27 26.0139 22.7685 26.1147C21.4678 25.9131 20.2675 25.5129 19.2665 24.4055C18.1666 22.7986 17.6661 20.1866 18.6671 18.3781C19.2665 17.1729 20.2675 16.2687 21.2685 15.566C21.4693 15.3644 21.2685 15.1643 21.0677 14.9642C19.4673 15.4652 18.1666 16.8735 16.6652 17.5747C16.1647 20.6892 15.9654 24.4055 12.7631 25.8123C11.7636 26.1147 10.7626 26.2155 9.7616 25.713C8.76061 25.1111 8.46091 24.0053 8.56131 22.7986C9.363 19.484 12.7631 18.4804 15.1652 16.9728C15.366 16.7712 15.366 16.5711 15.366 16.2702C14.6647 16.0701 13.8645 16.9728 12.9639 16.5711C11.4639 16.2702 11.7636 14.2601 10.2621 14.2601C9.3615 13.4566 9.2611 12.0498 9.5623 10.9455C9.7616 10.6445 9.9624 10.4429 10.2621 10.3436C10.5618 11.448 9.7616 13.1557 11.2616 13.4566C11.7621 11.2464 12.6627 8.63442 15.0633 7.93178C15.865 7.93328 16.7656 8.13339 16.8645 8.93684Z" fill="white"/>
<path fill-rule="evenodd" clip-rule="evenodd" d="M15.5652 9.54021C15.4648 11.0463 14.2646 12.253 13.0643 13.0564C12.9639 11.6496 13.7641 10.142 15.0648 9.3386C15.2641 9.23929 15.4648 9.3401 15.5652 9.54021ZM24.0692 9.54021C23.9688 10.8462 23.0682 11.5488 22.0687 12.253C22.0687 11.0478 22.5692 9.94193 23.5687 9.3386C23.7695 9.23929 24.0692 9.3401 24.0692 9.54021ZM14.864 18.6821C14.6632 20.9931 13.9634 23.3027 11.8625 24.6086C11.0623 24.7095 10.361 24.407 10.2621 23.7044C10.3625 21.1932 12.9639 19.6856 14.864 18.6821ZM61.5615 12.9632C61.8417 10.2158 59.9626 10.2519 58.2333 10.2519C54.084 10.2519 53.6824 11.8422 53.0545 16.2191L52.4222 20.6305C51.7328 25.4407 52.9856 25.9462 55.9826 25.9462C58.9211 25.9462 59.8187 25.1142 60.3582 21.3527H56.3812L57.1019 16.3274H66.9291L66.2487 21.0653C64.9376 30.2147 62.8532 31.8788 55.1314 31.8788C48.3313 31.8788 45.081 30.4314 46.3413 21.6431L47.3468 14.6287C48.6325 5.65988 52.7443 4.3208 59.083 4.3208C64.6723 4.3208 68.468 5.58616 67.4101 12.9632H61.5615ZM82.3725 25.3309C81.9634 28.1866 80.9804 29.8145 79.5479 30.7549C78.1213 31.6591 76.2467 31.8758 74.0559 31.8758C68.0919 31.8758 67.0235 29.2729 68.0409 22.1833C69.0884 14.88 70.7607 12.4561 76.8416 12.4561C82.5179 12.4561 83.9324 14.4452 82.8221 22.1833L82.6707 23.2319H72.8451C72.3671 26.5601 72.6308 27.5351 74.6778 27.5351C76.2047 27.5351 77.2147 27.3184 77.5009 25.3293H82.3725V25.3309ZM78.2097 19.7985C78.6158 16.9774 77.8036 16.7968 76.1343 16.7968C74.3766 16.7968 73.7562 17.3039 73.3411 19.7985H78.2097ZM88.9554 31.6606H83.9999L86.7226 12.6743H91.6782L91.1702 16.2176H91.3725C92.5233 13.2159 94.1012 12.4561 96.4359 12.4561C99.7775 12.4561 101.02 14.4452 100.434 18.5316L98.5502 31.6591H93.5947L95.27 19.9775C95.5053 18.1329 95.2326 17.2287 93.6187 17.2287C91.4009 17.2287 90.7865 18.8927 90.4554 21.2083L88.9554 31.6606ZM116.745 25.3309C116.336 28.1866 115.351 29.8145 113.92 30.7549C112.494 31.6591 110.619 31.8758 108.428 31.8758C102.464 31.8758 101.396 29.2729 102.413 22.1833C103.461 14.88 105.133 12.4561 111.214 12.4561C116.89 12.4561 118.305 14.4452 117.194 22.1833L117.045 23.2319H107.219C106.743 26.5601 107.005 27.5351 109.052 27.5351C110.579 27.5351 111.589 27.3184 111.875 25.3293H116.745V25.3309ZM112.582 19.7985C112.987 16.9774 112.176 16.7968 110.505 16.7968C108.747 16.7968 108.127 17.3039 107.712 19.7985H112.582ZM123.241 31.6606H118.285L121.008 12.6743H125.82L125.42 15.4593H125.62C126.595 13.2896 128.011 12.4576 129.855 12.4576C133.314 12.4576 133.093 16.0009 132.594 19.472L132.382 20.9555H127.916L128.045 20.0498C128.237 18.7122 128.507 17.2287 127.152 17.2287C125.653 17.2287 125.095 18.7122 124.873 20.2679L123.241 31.6606ZM142.576 28.8396C141.83 31.444 139.519 31.8788 137.79 31.8788C134.331 31.8788 132.466 30.8301 133.161 25.9838C133.814 21.428 135.918 20.0166 139.491 20.0166C140.902 20.0166 143.07 19.9805 143.304 22.1501H143.535L143.965 19.1485C144.22 17.3761 144.293 16.2567 142.132 16.2567C140.893 16.2567 140.064 16.6178 139.82 18.318H134.865C135.71 12.423 139.134 12.4591 142.678 12.4591C147.75 12.4591 149.766 13.255 148.829 19.8L147.125 31.6622H142.171L142.748 28.8411H142.576V28.8396ZM140.589 23.8127C139.378 23.8127 138.391 24.0655 138.142 25.8018C137.847 27.8631 139.258 27.8631 140.008 27.8631C142.08 27.8631 142.762 27.5366 143.046 25.549C143.274 23.9557 142.201 23.8127 140.589 23.8127ZM155.366 31.6606H150.41L154.3 4.53747H159.254L155.366 31.6606ZM177.336 15.4231H186.555L185.836 20.4485H176.616L175.857 25.7296H185.885L185.034 31.6606H169.243L173.133 4.53747H188.723L187.872 10.4685H178.047L177.336 15.4231ZM193.591 31.6606H188.637L192.527 4.53747H197.481L193.591 31.6606ZM211.811 25.3309C211.402 28.1866 210.42 29.8145 208.989 30.7549C207.561 31.6591 205.688 31.8758 203.496 31.8758C197.532 31.8758 196.466 29.2729 197.481 22.1833C198.528 14.88 200.202 12.4561 206.281 12.4561C211.959 12.4561 213.372 14.4452 212.263 22.1833L212.11 23.2319H202.285C201.808 26.5601 202.071 27.5351 204.118 27.5351C205.646 27.5351 206.654 27.3184 206.942 25.3293H211.811V25.3309ZM207.648 19.7985C208.053 16.9774 207.243 16.7968 205.573 16.7968C203.813 16.7968 203.193 17.3039 202.778 19.7985H207.648ZM228.329 24.0655C227.822 27.6088 226.956 29.4188 225.624 30.4675C224.316 31.5523 222.571 31.8788 219.891 31.8788C214.041 31.8788 212.975 29.6716 214.049 22.1863C214.971 15.7496 216.482 12.4591 222.678 12.4591C227.026 12.4591 229.887 13.2189 228.945 19.8H223.986C224.161 18.7874 224.161 18.172 223.875 17.7748C223.586 17.3761 223.03 17.2317 221.993 17.2317C220.234 17.2317 219.628 17.847 219.005 22.1863C218.367 26.6353 218.704 27.1063 220.577 27.1063C222.825 27.1063 223.039 26.4187 223.375 24.067H228.329V24.0655ZM242.852 17.2302H237.116L235.899 25.7296C235.767 26.8505 235.872 27.3214 236.795 27.3214C238.091 27.3214 238.201 26.1629 238.443 24.8614L238.619 23.8488H242.567L242.322 25.549C241.581 30.7203 239.89 31.8773 235.854 31.8773C232.685 31.8773 230.136 31.3703 230.821 26.5962L232.163 17.2287H230.32L230.973 12.6728H232.817L233.394 8.65853H238.349L237.775 12.6728H243.508L242.852 17.2302ZM248.327 31.6606H243.369L246.093 12.6743H250.905L250.503 15.4593H250.706C251.68 13.2896 253.097 12.4576 254.94 12.4576C258.397 12.4576 258.177 16.0009 257.68 19.472L257.465 20.9555H253L253.132 20.0498C253.322 18.7122 253.592 17.2287 252.239 17.2287C250.74 17.2287 250.181 18.7122 249.959 20.2679L248.327 31.6606ZM262.416 31.6606H257.488L260.209 12.6743H265.138L262.416 31.6606ZM265.622 9.31152H260.693L261.378 4.53747H266.306L265.622 9.31152ZM280.182 24.0655C279.676 27.6088 278.81 29.4188 277.478 30.4675C276.169 31.5523 274.425 31.8788 271.744 31.8788C265.894 31.8788 264.829 29.6716 265.903 22.1863C266.825 15.7496 268.335 12.4591 274.532 12.4591C278.88 12.4591 281.741 13.2189 280.798 19.8H275.84C276.015 18.7874 276.015 18.172 275.729 17.7748C275.44 17.3761 274.884 17.2317 273.847 17.2317C272.088 17.2317 271.482 17.847 270.859 22.1863C270.22 26.6353 270.558 27.1063 272.431 27.1063C274.678 27.1063 274.893 26.4187 275.228 24.067H280.182V24.0655Z" fill="#94A8B6"/>
</svg>
