<svg width="155" height="104" viewBox="0 0 155 104" fill="none" xmlns="http://www.w3.org/2000/svg">
<path d="M87.7025 9.40232C89.1507 11.484 90.7596 14.3663 90.2367 16.8883C89.392 17.7289 88.2255 17.9691 87.1796 18.4495C86.3348 15.3671 82.3928 9.48237 82.7548 9.5624L82.7146 8.24134C84.6454 7.40073 86.0935 8.24134 87.7025 9.40232Z" fill="#94A8B6"/>
<path d="M69.5207 25.6954C70.1643 26.8163 68.7967 27.6168 67.8313 28.0172L66.5843 28.2574L58.9415 23.2935L58.9011 22.5728C59.6252 23.0132 60.1079 21.6121 60.9124 21.7322C64.0098 21.572 67.5094 23.1733 69.5207 25.6954Z" fill="#94A8B6"/>
<path d="M113.447 15.0468C112.481 15.8474 111.476 14.6465 110.872 13.8459L110.349 12.6449L113.809 4.23821L114.573 4.07812C114.171 4.8387 115.659 5.03887 115.699 5.83954C116.464 8.8419 115.539 12.6049 113.447 15.0468Z" fill="#94A8B6"/>
<path d="M106.367 17.0885C104.275 15.7674 101.822 15.3671 99.6093 16.6082C96.1901 18.5697 93.9375 22.8131 93.0123 26.5761C92.8917 27.0965 92.1274 29.8187 92.6503 30.259C89.3116 27.4168 86.4154 24.0941 81.709 24.4544C75.9165 24.9748 71.6123 30.179 73.0202 36.3038C73.3822 37.9852 73.9455 39.3863 74.8305 40.8275C77.1635 44.5504 81.2664 49.3943 85.2487 51.3559C93.9776 55.4791 96.5119 54.5184 97.598 53.3975C97.6382 53.3575 84.6454 50.0748 79.6977 34.9827C75.5545 22.3327 93.9776 40.3871 93.5754 40.4272C94.7017 40.307 95.8684 40.3071 96.5522 39.2663C96.5522 39.2663 96.4315 35.4631 96.5522 33.4615C96.6326 30.7794 97.6784 21.2118 102.264 23.5336C104.999 24.8947 105.522 28.1774 105.482 31.0197C105.402 37.4647 103.752 43.7898 101.178 49.6344C100.454 51.3158 99.6092 52.9571 98.8047 54.6385C98.8047 54.6785 98.2819 55.7594 98.5635 55.7994C101.5 55.6392 104.638 50.5952 105.925 48.0733C108.137 43.7899 109.867 38.7858 110.591 33.942C111.194 30.0588 111.717 25.4151 110.148 21.6922C109.384 19.8507 108.016 18.1294 106.367 17.0885Z" fill="#94A8B6"/>
<path d="M147.88 48.1532C147.196 47.5928 146.271 47.2324 145.627 46.9122C144.018 46.1515 142.289 45.7513 140.599 45.2709C137.824 44.5903 135.088 44.0299 132.232 43.7096C130.744 43.5095 129.175 43.3494 127.606 43.3094C122.779 43.0692 115.7 43.0691 111.798 46.5519C109.827 48.3133 109.103 49.9946 110.349 52.1964C113.97 45.9514 129.095 48.4734 131.468 48.6736C134.968 48.9538 138.347 49.5943 141.725 50.5951C142.651 50.8754 143.536 51.1556 144.541 51.3558C145.587 51.596 146.753 51.716 147.799 51.2756C148.483 50.9954 149.288 50.3949 149.006 49.5543C148.845 49.0338 148.403 48.5535 147.88 48.1532Z" fill="#94A8B6"/>
<path d="M32.5132 46.9522C33.8005 46.0715 35.4095 45.6312 36.2543 45.431C42.6099 43.7096 49.2069 42.5887 55.7637 42.4686C61.2745 42.3886 69.3598 42.949 73.7042 46.712C75.9568 48.6736 76.721 50.5951 75.2327 52.957C74.6293 51.9562 73.3823 50.9554 72.4571 50.3549C69.3598 48.4335 65.2166 48.1932 61.6767 48.1131C58.2174 48.0331 54.7579 48.3133 51.2583 48.5535C47.4771 48.9138 43.7362 49.4742 39.9952 50.1949C36.4956 50.8353 33.8006 51.7961 32.1915 50.9954C29.8987 49.8746 30.6226 48.2733 32.5132 46.9522Z" fill="#94A8B6"/>
<path d="M18.6756 48.9939C16.6241 46.7521 13.1646 47.7529 12.32 50.5151L12.1591 63.1252C12.1591 63.3253 13.6475 62.8049 15.5381 61.0034C18.0723 58.7216 20.7673 53.5975 19.3997 50.0747C19.2388 49.7144 18.9974 49.3142 18.6756 48.9939ZM25.1117 48.3933C27.8068 53.1972 26.3586 58.9218 22.9797 62.925C17.9516 68.9298 12.5613 70.0106 12.5613 70.2509C12.5613 70.2509 11.8776 89.0259 10.7111 88.6255C10.7111 88.6255 6.60808 88.3853 4.87837 86.6639C3.67164 85.463 4.27501 61.0835 4.11409 53.5975C3.95317 47.1524 4.39563 46.592 4.39563 46.592C7.61371 41.4278 15.176 40.7473 20.164 43.6296C22.1752 44.7505 23.9854 46.3918 25.1117 48.3933Z" fill="#94A8B6"/>
<path d="M105.724 62.1244C106.609 59.9627 108.942 59.7225 110.39 61.3238C111.033 62.0844 111.516 63.0852 111.677 64.046C111.959 65.7273 111.596 66.4078 111.596 66.4078C111.033 67.0884 105.08 69.4502 104.839 69.2901C104.557 69.13 104.758 64.4863 105.724 62.1244ZM114.694 74.9747C113.125 74.6544 113.246 76.2557 110.712 78.4574C107.212 81.4998 104.557 79.3782 104.637 74.6944C104.316 74.214 116.102 69.7705 116.464 68.4094C117.872 63.4855 116.303 56.4399 110.269 55.1589C109.022 54.8787 107.654 54.7586 106.126 55.1189C98.3221 56.9604 95.5064 76.9763 100.856 83.5415C106.327 90.1068 116.021 83.8617 118.073 76.4559C118.073 76.4559 116.745 75.335 114.694 74.9747Z" fill="#94A8B6"/>
<path d="M75.0718 68.2492C75.0316 66.0474 74.8706 63.7255 74.1868 61.5238C73.7041 60.0026 73.0203 58.4013 71.894 57.1604C71.009 56.1195 69.3999 55.2788 68.0322 55.1188C64.9751 54.7985 61.4353 60.4029 61.4353 60.4029C61.1135 60.2428 60.1882 54.9586 57.0506 54.9586C54.5969 54.9586 51.58 60.6031 51.58 60.6031C51.58 60.5631 51.4191 55.6792 51.2583 54.5182C51.1375 53.3974 45.9083 53.3573 45.5864 55.0386C45.506 59.8025 43.9372 80.8192 46.4714 84.1819C46.9944 84.8624 51.7812 87.9449 51.741 85.9433C51.7007 84.5022 51.8615 71.5719 52.7063 66.688C52.9879 65.0066 53.712 61.6039 56.3668 62.1243C58.9011 62.6848 57.5736 76.896 58.2976 81.6999C58.4183 82.5406 58.6195 84.1018 59.1022 84.8224C59.5044 85.5029 63.4867 87.0241 63.4867 85.9433C63.4867 84.5422 63.8488 70.1307 63.9695 68.3693C64.05 66.3677 63.8487 63.6055 65.6589 62.2043C67.1875 60.9634 68.6355 62.6848 68.8367 64.246C69.2792 68.5694 68.8769 72.8928 69.078 77.2163C69.1988 79.298 69.3596 84.1018 70.0435 84.7824C70.6066 85.3828 75.0718 87.3844 75.0718 85.8232C75.0718 79.9385 75.1924 75.1747 75.0718 68.2492Z" fill="#94A8B6"/>
<path d="M87.0187 76.4558C85.4097 77.8569 84.0822 77.897 84.0822 77.897C84.0822 77.897 84.3236 61.724 84.3638 61.684C84.4041 61.4438 85.4499 60.6032 87.0187 60.7633C87.9438 60.8834 88.8289 61.4038 89.4725 62.2044C92.4493 65.8874 90.2367 73.7736 87.0187 76.4558ZM95.5466 59.7224C91.8057 53.1572 82.8755 54.3181 77.968 59.242C77.244 59.9627 76.8015 96.3516 78.5714 98.7535C79.0541 99.4341 83.7606 100.915 83.7204 98.9137C83.7204 98.3132 83.8008 90.5471 83.8812 84.142C85.0478 84.6623 91.9665 82.7408 94.8225 76.5759C97.236 71.3718 98.2417 64.4062 95.5466 59.7224Z" fill="#94A8B6"/>
<path d="M32.151 76.776C31.8293 77.2164 30.7433 78.3373 29.7377 79.0179C28.6516 79.7384 27.6459 79.8986 27.6057 78.0571C27.6057 76.736 28.1285 75.2948 28.6515 74.0939C29.6571 71.652 32.4326 68.3693 35.4495 68.6896C35.4495 68.6896 35.3691 72.4926 32.151 76.776ZM41.2019 58.4013C39.9951 55.9594 38.0241 54.3181 34.8463 54.198C31.7087 54.0379 28.0481 54.9587 26.5195 58.0411C26.3988 58.2813 26.3184 58.5615 26.2782 58.7617C26.1575 59.4022 26.1978 60.0027 26.5195 60.6031C26.5195 60.6031 27.9677 62.925 28.7722 62.2845C29.7779 61.5238 30.703 60.6031 31.7488 59.8826C32.9154 59.0419 35.7311 57.2004 36.8172 59.162C37.3401 60.0427 37.2999 61.644 37.1793 62.6047C37.1793 62.925 37.139 63.2452 37.0988 63.5655C29.3755 64.1659 21.411 69.7304 20.8479 77.6167C20.5663 80.8193 21.3305 84.8224 24.7496 86.0234C28.4101 87.2644 31.7086 84.382 33.8406 81.7399C35.0876 80.2587 36.1737 78.6175 37.3 77.0162C37.3 77.0162 37.0988 84.3421 37.1793 85.3028C37.4608 87.5046 40.7593 85.3828 41.2822 85.1427C42.4085 84.6223 42.4891 79.338 42.4891 78.8176C42.6098 74.0538 43.9774 64.1259 41.2019 58.4013Z" fill="#94A8B6"/>
<path d="M134.444 56.76C134.283 56.3997 134.042 56.0395 133.68 55.7593C132.674 54.9986 131.267 55.1988 130.18 55.5991C128.089 56.2797 126.399 57.8809 125.193 59.7224C124.951 60.0427 124.75 60.443 124.589 60.8032C124.67 59.1219 124.79 56.2796 124.308 55.6391C123.624 54.6383 118.716 55.3589 118.596 56.1595C118.555 56.4798 120.003 81.7399 120.124 82.5006C120.325 84.1819 119.963 85.6231 121.814 86.1835C122.578 86.4237 125.273 87.6247 125.354 85.7831C125.434 84.7423 125.233 77.4165 125.233 77.4165C125.072 73.2131 125.474 68.7696 127.687 65.0867C129.014 62.7248 131.427 60.2429 134.203 59.8025C134.444 59.8025 134.565 59.162 134.605 58.9618C134.726 58.2412 134.726 57.4406 134.444 56.76Z" fill="#94A8B6"/>
<path d="M149.408 73.6136C148.202 71.692 146.552 70.291 145.024 68.6096C143.214 66.568 140.599 63.6857 142.128 60.9635C142.932 59.4823 144.461 58.9619 145.989 59.7225C148.041 60.8034 147.638 63.0852 146.673 64.5664C146.593 64.6865 147.719 64.7265 147.759 64.7265C148.282 64.7265 148.725 64.6865 149.127 64.4062C151.782 62.6849 150.977 58.4815 148.885 56.4799C147.96 55.5992 146.713 54.9587 145.547 54.6785C140.116 53.4375 133.56 57.6409 135.571 63.6056C136.295 65.7273 137.542 67.6488 139.03 69.3702C140.639 71.1316 143.495 73.2132 143.817 75.7352C144.139 78.0571 141.806 79.5783 139.794 79.8586C137.381 80.0987 135.169 78.4173 134.364 76.1756C133.922 75.0147 133.479 74.8946 132.755 75.8954C131.307 77.857 132.112 81.0194 133.761 82.981C133.881 83.1412 134.042 83.3012 134.163 83.4214C137.22 86.5038 143.053 87.7849 146.914 85.4631C151.218 82.901 152.063 77.8169 149.408 73.6136Z" fill="#94A8B6"/>
</svg>
