<svg xmlns="http://www.w3.org/2000/svg" xmlns:xlink="http://www.w3.org/1999/xlink" width="230.34" height="67.696" viewBox="0 0 230.34 67.696">
  <defs>
    <clipPath id="clip-path">
      <rect id="Rectangle_1545" data-name="Rectangle 1545" width="230.34" height="67.696" fill="#667596"/>
    </clipPath>
  </defs>
  <g id="Group_2601" data-name="Group 2601" transform="translate(-606.83 -10275.559)">
    <g id="Group_2441" data-name="Group 2441" transform="translate(606.83 10275.559)">
      <g id="Group_2440" data-name="Group 2440" transform="translate(0)" clip-path="url(#clip-path)">
        <path id="Path_7828" data-name="Path 7828" d="M11.737,48.431C5.975,48.416,1.889,46.043.288,42.2c-.513-1.232-.446-1.916,1.054-2.03A7.7,7.7,0,0,0,3.079,39.8c1.6-.513,2.8-.765,3.875,1.257C8.2,43.393,12.828,43.844,15,42.26c1.735-1.267,1.644-3.367-.314-4.267A28.875,28.875,0,0,0,10.65,36.8c-1.208-.351-2.435-.655-3.612-1.091-4.169-1.543-5.921-3.894-5.812-7.69a8.722,8.722,0,0,1,6.131-8.161c5.185-1.79,11.252-.067,13.8,3.847.94,1.445,1.236,2.5-.94,2.873a7.328,7.328,0,0,0-1.9.6,1.655,1.655,0,0,1-2.513-.743,5.145,5.145,0,0,0-5.953-1.81c-1.058.32-1.907.836-2.022,2.073a2.268,2.268,0,0,0,1.724,2.536c1.763.553,3.583.92,5.375,1.384a12.759,12.759,0,0,1,4.889,2.03c4.989,3.916,3.872,11.633-2.1,14.494a14.588,14.588,0,0,1-5.973,1.289" transform="translate(0 -10.595)" fill="#667596"/>
        <path id="Path_7829" data-name="Path 7829" d="M80.113,48.523c-.742,0-1.183,0-1.624,0-1.706-.014-3.639.466-5.058-.18-1.533-.7-1.267-2.957-1.828-4.515A1.415,1.415,0,0,0,69.98,42.7c-.814.051-1.633,0-2.45.012-1.706.016-3.653-.465-5.052.2-1.473.7-1.391,2.923-1.841,4.5S59.07,48.489,58.149,48.5c-3.709.06-3.713.031-2.588-3.484,2.412-7.537,4.9-15.051,7.189-22.625.567-1.878,1.471-2.327,3.291-2.288,5.179.112,5.193.033,6.767,5.045,2.412,7.684,4.807,15.374,7.305,23.37M66.818,28.048a34.322,34.322,0,0,0-2.771,9.362c1.472,0,2.943-.021,4.413.008.769.016,1.119-.251.884-1.034-.815-2.708-1.639-5.414-2.525-8.337" transform="translate(-30.371 -11.122)" fill="#667596"/>
        <path id="Path_7830" data-name="Path 7830" d="M118.149,34.368c0-4.073.059-8.147-.032-12.218-.034-1.489.306-2.1,1.935-2.026,4.217.2,8.45-.219,12.664.323,4.647.6,7.493,4.052,7.351,8.962-.139,4.8-3.356,8.242-7.961,8.46a35.955,35.955,0,0,1-5.112.022c-1.858-.179-2.249.584-2.155,2.253.129,2.288.086,4.591.018,6.885-.084,2.841-2.31,1.367-3.458,1.383-1.056.014-3.244,1.433-3.249-1.381q-.01-6.331,0-12.663m6.46-5.351c0,.884,0,1.768,0,2.652,0,.622.071,1.229.912,1.2,1.761-.061,3.536.229,5.282-.261a3.28,3.28,0,0,0,2.558-3.2,3.466,3.466,0,0,0-3.215-3.99c-5.011-.733-5.541-.39-5.538,3.6" transform="translate(-65.336 -11.128)" fill="#667596"/>
        <path id="Path_7831" data-name="Path 7831" d="M224.859,34.52c0-4.152.046-8.3-.026-12.454-.024-1.369.24-2.03,1.808-1.936,3.477.209,6.98-.263,10.448.28a8.072,8.072,0,0,1,7,8.6,8.128,8.128,0,0,1-7.78,7.943,55.491,55.491,0,0,1-6.01.016c-1.4-.07-1.971.295-1.9,1.817.121,2.737-.062,5.489.069,8.225.08,1.664-.872,1.49-1.955,1.55-1.212.067-1.7-.27-1.673-1.582.075-4.15.028-8.3.027-12.454m7.934-11.348c-1.11,0-2.221.025-3.331-.009-.763-.024-1.045.3-1.04,1.045.021,2.956.017,5.913,0,8.87,0,.771.388,1.039,1.1,1.021,2.143-.053,4.3.066,6.423-.185a5.021,5.021,0,0,0,4.542-5.566,5.165,5.165,0,0,0-5.255-5.174c-.813-.027-1.628,0-2.442,0" transform="translate(-124.367 -11.13)" fill="#667596"/>
        <path id="Path_7832" data-name="Path 7832" d="M287.407,53.506a8.374,8.374,0,0,1-8.156,3.994c-3.3-.206-5.9-2.248-6.386-5.152a6.571,6.571,0,0,1,4.215-7.276,18.728,18.728,0,0,1,8.532-1.053c1.728.126,1.973-.484,1.774-2.013a4.043,4.043,0,0,0-3.59-3.878c-2.993-.58-5.848.141-6.86,2.319-.849,1.826-2.2,1.225-3.058.76-.888-.482-.038-1.56.355-2.282a6.044,6.044,0,0,1,3.608-2.789,15.322,15.322,0,0,1,7.91-.365,5.469,5.469,0,0,1,4.5,4.634c.673,3.232.285,6.5.385,9.746a42.567,42.567,0,0,1,.014,4.661c-.059.745,1.262,2.093-.867,2.222-1.666.1-2.339-.473-2.229-2.089a12.412,12.412,0,0,0-.144-1.44m-2.921-7.157a11.589,11.589,0,0,0-6.183,1.39,3.873,3.873,0,0,0-1.889,4.363c.343,1.742,1.592,2.527,3.274,2.827a6.562,6.562,0,0,0,7.456-4.806c1.029-3.247.66-3.771-2.657-3.773" transform="translate(-150.884 -19.594)" fill="#667596"/>
        <path id="Path_7833" data-name="Path 7833" d="M449.963,46.856c-2,0-4.006.007-6.009,0-.711,0-1.227.014-1.306,1.007a6.468,6.468,0,0,0,4.139,6.672,5.417,5.417,0,0,0,7.016-2.584c1-1.8,2.287-.936,3.162-.508s-.049,1.4-.426,1.974c-2.118,3.231-5.218,4.448-8.987,4.139a8.473,8.473,0,0,1-7.409-5.257,13.25,13.25,0,0,1,.068-11.4c1.843-3.969,5.59-5.824,10.088-5.214,3.687.5,6.37,3.289,7.178,7.459.719,3.716.719,3.716-3.064,3.716h-4.451m-1.471-2.362c1.41,0,2.822-.054,4.229.016,1.282.064,1.719-.3,1.417-1.665-.625-2.824-2.447-4.666-5.034-4.848a5.982,5.982,0,0,0-5.846,3.964c-.868,2.262-.7,2.522,1.673,2.532,1.187,0,2.375,0,3.562,0" transform="translate(-242.774 -19.674)" fill="#667596"/>
        <path id="Path_7834" data-name="Path 7834" d="M394.15,39.679c2.131-2.967,4.427-4.462,7.665-4.04a6.259,6.259,0,0,1,5.547,5.5c.5,4.882.15,9.784.268,14.676.029,1.192-.6,1.279-1.533,1.281s-1.526-.094-1.509-1.289c.057-4,.076-8.011,0-12.016-.081-4.067-2.188-6.029-5.561-5.348-2.481.5-4.494,3.059-4.59,6.133-.111,3.557-.087,7.12-.042,10.679.015,1.219-.119,1.9-1.645,1.876-1.414-.018-1.74-.483-1.726-1.8.061-5.711.031-11.423.021-17.134,0-1.129-.217-2.165,1.611-2.131,1.773.033,1.357,1.1,1.4,2.067.013.286.034.572.095,1.55" transform="translate(-216.295 -19.675)" fill="#667596"/>
        <path id="Path_7835" data-name="Path 7835" d="M358.182,39.939c0-1.78-.085-3.565.026-5.338.092-1.457-.211-2.26-1.892-2.042-.852.11-1.769.228-1.818-1.214-.055-1.617.99-1.417,1.9-1.307,1.534.186,1.957-.5,1.837-1.887-.064-.734.075-1.484.032-2.222-.094-1.611,1.161-1.176,2-1.354,1.243-.264,1.066.633,1.079,1.358a7.061,7.061,0,0,1-.009,1.333c-.39,2.232.458,3.11,2.747,2.79.786-.11,2.007-.552,2.057,1.143.053,1.786-1.194,1.493-2.112,1.348-2.4-.382-2.843.712-2.726,2.843.173,3.18.027,6.376.051,9.565.023,3.093.953,3.973,4.007,3.928.853-.013,1.971-.6,1.977,1.137,0,1.521-.915,1.4-1.9,1.439-5.22.225-7.229-1.662-7.256-6.847-.008-1.557,0-3.115,0-4.672" transform="translate(-196.092 -13.568)" fill="#667596"/>
        <path id="Path_7836" data-name="Path 7836" d="M330.113,39.754c1.53-2,2.8-4.015,5.5-4.289.828-.084,1.907-.482,1.973.982.05,1.1.264,2.089-1.513,2.274-3.212.332-5.349,2.957-5.487,6.519-.129,3.333-.119,6.675-.036,10.011.034,1.389-.426,1.754-1.77,1.752-1.312,0-1.618-.475-1.608-1.686.048-5.859.037-11.719.007-17.579-.005-1.1.079-1.771,1.51-1.786,1.51-.016,1.486.779,1.434,1.814-.034.661-.006,1.325-.006,1.988" transform="translate(-180.975 -19.555)" fill="#667596"/>
        <path id="Path_7837" data-name="Path 7837" d="M354.3,116.118c.937-1.426,2.054-2.577,3.93-2.492a3.438,3.438,0,0,1,3.391,3.437c.131,2.59.092,5.189.132,7.784.011.714-.006,1.339-1.025,1.286-1.081-.055-.856-.825-.863-1.445q-.038-3.115-.017-6.23c.011-1.532-.25-2.945-2.109-3.068a2.863,2.863,0,0,0-3.158,2.794c-.236,1.977-.051,4-.148,6-.035.731.584,2.013-1,1.916-1.359-.084-.765-1.221-.794-1.9-.08-1.925-.007-3.856-.039-5.784-.028-1.614-.461-3.085-2.411-3.085-1.894,0-2.772,1.32-2.87,3.054-.118,2.071-.046,4.152-.068,6.228-.008.72.172,1.569-1.026,1.516-1.085-.048-.828-.857-.832-1.463q-.031-4.672,0-9.346c0-.47-.213-1.113.527-1.271.551-.118,1.026-.045,1.131.685.1.679.391.538.886.24,3.339-2.006,4.141-1.85,6.363,1.144" transform="translate(-191.042 -62.851)" fill="#667596"/>
        <path id="Path_7838" data-name="Path 7838" d="M495.109,39.653c1.614-1.763,2.682-3.912,5.3-4.185.824-.087,2.055-.794,2.2.864.1,1.178.246,2.184-1.629,2.358-3.276.3-5.352,3.257-5.438,7.28q-.1,4.659.008,9.321c.031,1.243-.328,1.659-1.611,1.649-1.239-.01-1.655-.337-1.641-1.619.063-5.918.038-11.837.017-17.756,0-.976.006-1.677,1.354-1.664,1.221.012,1.554.464,1.456,1.568-.064.723-.012,1.456-.012,2.184" transform="translate(-272.315 -19.496)" fill="#667596"/>
        <path id="Path_7839" data-name="Path 7839" d="M1.663,113.2c0-.7-.006-.846,0-.994.212-4.919,3.077-8.29,6.966-8.2,3.955.093,6.8,3.773,6.665,8.68a10.935,10.935,0,0,1-1.434,5.294A5.93,5.93,0,0,1,8.42,121.2a5.99,5.99,0,0,1-5.541-3.433A11.3,11.3,0,0,1,1.663,113.2m11.467-.658a8.974,8.974,0,0,0-1.154-4.743c-1.777-2.8-5.29-2.852-6.9.032a9.293,9.293,0,0,0,.1,9.745,3.772,3.772,0,0,0,6.618.008,9.852,9.852,0,0,0,1.33-5.043" transform="translate(-0.919 -57.529)" fill="#667596"/>
        <path id="Path_7840" data-name="Path 7840" d="M40.536,125.153c0,1.443-.017,2.623.006,3.8.014.754-.112,1.318-1.059,1.307-1.031-.012-.934-.719-.934-1.391,0-4.448-.01-8.9.013-13.343,0-.6-.285-1.406.777-1.526,1.273-.143.8.922,1.135,1.661,1.1-1.183,2.266-2.212,3.98-2.058a4.275,4.275,0,0,1,2.749,1.3c2.177,2.211,2.43,7.171.488,9.737-1.633,2.157-3.658,2.354-7.155.508m-.03-5.068.061,0a13.364,13.364,0,0,0,.009,1.555c.205,1.731,1.085,2.963,2.891,3.148,1.9.2,2.817-1.013,3.219-2.7a7.853,7.853,0,0,0-.146-4.381c-.492-1.476-1.349-2.5-3.059-2.328a3.18,3.18,0,0,0-2.833,2.719,11.21,11.21,0,0,0-.143,1.988" transform="translate(-21.312 -62.834)" fill="#667596"/>
        <path id="Path_7841" data-name="Path 7841" d="M141.275,112.665c0-2.146.042-4.294-.018-6.439-.03-1.095.24-1.617,1.472-1.58,2.592.078,5.188.029,7.782.02.725,0,1.362.045,1.3,1.03-.057.9-.732.783-1.3.788-1.853.017-3.708.066-5.558-.013-1.152-.05-1.678.322-1.515,1.5a1.366,1.366,0,0,1,0,.222c-.105,3.566-.105,3.566,3.4,3.567.667,0,1.335-.013,2,.005.569.016,1.235-.118,1.252.81.017.861-.533.931-1.173.931-1.334,0-2.673.072-4-.017-1.193-.08-1.472.387-1.5,1.523-.123,4.334-.167,4.333,4.219,4.333,1.038,0,2.076,0,3.113,0,.593,0,1.2-.06,1.232.841.032.829-.4.987-1.092.984-2.816-.014-5.633-.033-8.449.008-1.073.016-1.173-.575-1.164-1.41.024-2.368.008-4.737.008-7.105" transform="translate(-78.136 -57.885)" fill="#667596"/>
        <path id="Path_7842" data-name="Path 7842" d="M321.07,120.246c-.817,0-1.635-.005-2.452,0-2.052.021-2.454.627-1.677,2.522a3.462,3.462,0,0,0,5.862.773c.581-.677,1.1-1.451,1.909-.631.707.716-.185,1.329-.616,1.847a4.81,4.81,0,0,1-2.432,1.485,5.4,5.4,0,0,1-5.975-1.869,8.022,8.022,0,0,1-.332-8.03,5.33,5.33,0,0,1,10.01,2.762c-.017.895-.336,1.178-1.176,1.146-1.039-.04-2.081-.009-3.121-.008m-1.167-1.272c1.01-.712,2.841.987,3.215-1.122.249-1.4-1.552-2.928-3.091-2.781-1.715.164-3.2,1.135-3.1,2.845.118,1.922,2.023.38,2.972,1.058" transform="translate(-173.933 -62.82)" fill="#667596"/>
        <path id="Path_7843" data-name="Path 7843" d="M72.612,120.244c-.742,0-1.485,0-2.227,0-2.092.017-2.547.766-1.627,2.669a3.438,3.438,0,0,0,5.738.673c.559-.648,1.047-1.521,1.9-.737s-.181,1.384-.615,1.932a4.637,4.637,0,0,1-2.43,1.484,5.387,5.387,0,0,1-5.953-1.929,8.011,8.011,0,0,1-.2-8.217,5.525,5.525,0,0,1,5.787-2.434,5.658,5.658,0,0,1,4.132,5.651c-.062.889-.525.912-1.16.908-1.114-.008-2.227,0-3.341,0m-.755-5.216a3.573,3.573,0,0,0-3.018,2c-.6,1.246-.51,1.938,1.123,1.837,1.247-.076,2.5-.047,3.753-.005,1.045.035,1.528-.219,1.143-1.4a3.227,3.227,0,0,0-3-2.432" transform="translate(-36.596 -62.818)" fill="#667596"/>
        <path id="Path_7844" data-name="Path 7844" d="M276.674,126.495a5.478,5.478,0,0,1-4.555-1.858c-.365-.465-1.074-1.076-.412-1.646.566-.487,1.25-.47,1.824.409,1.11,1.7,2.892,1.566,4.6,1.244a1.725,1.725,0,0,0,1.523-1.664,1.629,1.629,0,0,0-1.4-1.739c-1.28-.354-2.6-.546-3.887-.889a3.115,3.115,0,0,1-2.606-3.158,3.307,3.307,0,0,1,2.529-3.268,5.624,5.624,0,0,1,5.824.981c.458.4,1.4,1.011.583,1.781-.632.6-1.273.265-1.831-.452-.951-1.223-2.337-1.116-3.675-.853a1.552,1.552,0,0,0-1.374,1.518,1.447,1.447,0,0,0,1.269,1.568c1.006.241,2.032.4,3.037.64,2.54.61,3.73,1.867,3.622,3.776-.1,1.834-1.6,3.175-3.964,3.529-.365.055-.738.053-1.11.079" transform="translate(-150.146 -62.803)" fill="#667596"/>
        <path id="Path_7845" data-name="Path 7845" d="M227.873,126.523c-1.757-.064-3.476-.422-4.59-2.066-.289-.426-.934-.988-.159-1.491a1.042,1.042,0,0,1,1.654.4c.96,1.56,2.563,1.575,4.151,1.4,1.024-.11,1.9-.53,2-1.708.1-1.224-.744-1.664-1.757-1.9-1.224-.282-2.469-.491-3.671-.845a3.056,3.056,0,0,1-2.416-3.076,3.334,3.334,0,0,1,2.278-3.23c2.031-.864,5-.4,6.2,1.054.363.439,1.189.978.408,1.648-.56.481-1.17.391-1.679-.33-.836-1.185-2.117-1.23-3.41-1.055-.954.128-1.738.533-1.774,1.629-.034,1,.657,1.419,1.525,1.606.939.2,1.89.353,2.824.578,2.535.612,3.737,1.893,3.6,3.793-.128,1.824-1.644,3.161-4,3.508-.365.054-.738.049-1.189.076" transform="translate(-123.219 -62.829)" fill="#667596"/>
        <path id="Path_7846" data-name="Path 7846" d="M195.055,119.934c.031-3.757,2.421-6.409,5.7-6.326,3.142.08,5.338,2.747,5.322,6.465s-2.383,6.434-5.641,6.448c-3.214.014-5.415-2.679-5.382-6.587m2.148.225a11.361,11.361,0,0,0,.206,2.034,3.092,3.092,0,0,0,2.891,2.637,3.015,3.015,0,0,0,3.288-2.389,7.356,7.356,0,0,0-.156-5.22,2.95,2.95,0,0,0-2.969-1.933,3.042,3.042,0,0,0-2.783,1.873,7.457,7.457,0,0,0-.478,3" transform="translate(-107.896 -62.842)" fill="#667596"/>
        <path id="Path_7847" data-name="Path 7847" d="M97.113,119.979c0-1.63-.007-3.259.007-4.889,0-.418-.091-.957.534-1.028.489-.056,1.112-.194,1.2.571.156,1.317.664.52,1.054.178a3.918,3.918,0,0,1,4.516-.795c1.733.784,2.217,2.266,2.23,4q.025,3.444.032,6.888c0,.6.034,1.215-.862,1.216-.864,0-.907-.56-.907-1.192,0-2.148.017-4.3-.023-6.444-.027-1.474-.252-2.9-2.119-3.114a3.051,3.051,0,0,0-3.492,2.419c-.661,2.1-.151,4.272-.346,6.4-.067.73.585,2.007-1.007,1.9-1.363-.09-.749-1.216-.792-1.893-.091-1.4-.027-2.813-.026-4.22" transform="translate(-53.677 -62.849)" fill="#667596"/>
        <path id="Path_7848" data-name="Path 7848" d="M253.216,123.162c.959-2.57,1.846-4.913,2.7-7.267.281-.772.477-1.816,1.56-1.346.9.388.106,1.177-.082,1.715q-2.089,5.965-4.278,11.895c-.636,1.728-1.7,2.959-3.77,2.81-.619-.045-1.224-.133-1.24-.948s.573-.628,1.083-.705c2.316-.351,3.261-1.875,2.5-4.1-1.023-3.009-2.156-5.982-3.128-9.007-.153-.476-1.188-1.334.1-1.728,1.01-.309,1.391.389,1.68,1.277.685,2.108,1.467,4.186,2.228,6.269a9.5,9.5,0,0,0,.636,1.136" transform="translate(-137.2 -63.284)" fill="#667596"/>
        <path id="Path_7849" data-name="Path 7849" d="M171.267,120.017a8.73,8.73,0,0,0,.453,2.877,2.805,2.805,0,0,0,2.46,1.946,2.521,2.521,0,0,0,2.69-1.55c.343-.771.683-1.722,1.685-1.143,1.063.613.144,1.492-.183,2.088a4.711,4.711,0,0,1-7.859.366,8.228,8.228,0,0,1,.014-9.008,4.663,4.663,0,0,1,4.679-1.93,4.335,4.335,0,0,1,3.575,2.962c.187.483.438,1.054-.2,1.342-.449.2-1.109.325-1.319-.348-.583-1.873-1.816-2.814-3.694-2.179-2.154.729-2.18,2.751-2.3,4.577" transform="translate(-93.582 -62.839)" fill="#667596"/>
        <path id="Path_7850" data-name="Path 7850" d="M301.971,123.129c-2.369-.071-3.517-1.144-3.647-3.486-.107-1.921-.038-3.852-.04-5.779,0-.956.2-2.03-1.37-1.844a.625.625,0,0,1-.743-.629c-.031-.443.2-.788.608-.744,1.591.168,1.6-.849,1.561-1.95-.021-.634.078-1.173.914-1.225,1.1-.068.991.711.932,1.34-.125,1.32.31,1.979,1.729,1.8.437-.055.922,0,.982.613.074.761-.46.885-1,.806-1.724-.25-1.729.829-1.7,2.04.041,1.778.013,3.556.016,5.335a1.872,1.872,0,0,0,1.969,2.162c.578.027,1.529-.373,1.4.788s-1.167.541-1.611.774" transform="translate(-163.827 -59.446)" fill="#667596"/>
        <path id="Path_7851" data-name="Path 7851" d="M185.834,6.728a6.671,6.671,0,0,1-6.65,6.612A6.758,6.758,0,0,1,172.515,6.7a6.711,6.711,0,0,1,6.8-6.7,6.631,6.631,0,0,1,6.516,6.728m-12.287-.169a5.653,5.653,0,1,0,5.7-5.61,5.714,5.714,0,0,0-5.7,5.61" transform="translate(-95.428 0)" fill="#667596"/>
        <path id="Path_7852" data-name="Path 7852" d="M180.923,9.819a4.459,4.459,0,0,1,.007-.888c.195-.96-.618-2.412.521-2.8a5.418,5.418,0,0,1,4.132.22c1.156.582,1.779,1.865.927,2.745-1.274,1.316-.605,2.308-.1,3.472.165.382.575.856-.025,1.117-.446.193-.83-.144-1.017-.617a4.129,4.129,0,0,0-.3-.594c-.494-.823-.444-2.184-1.935-2.036-1.749.172-.81,1.567-1.05,2.416-.105.37-.156.813-.575.828-.649.024-.566-.548-.574-.967-.018-.963-.006-1.927-.008-2.891m2.409-.306c1.149-.025,2.151-.031,2.146-1.261-.006-1.38-1.149-1.236-2.08-1.324-1.054-.1-1.391.392-1.408,1.41-.021,1.248.744,1.21,1.342,1.175" transform="translate(-100.027 -3.22)" fill="#667596"/>
      </g>
    </g>
  </g>
</svg>
