<svg width="172" height="43" viewBox="0 0 172 43" fill="none" xmlns="http://www.w3.org/2000/svg">
<g clip-path="url(#clip0_51_2089)">
<path fill-rule="evenodd" clip-rule="evenodd" d="M7.1851 3.0266e-07H35.8149C37.7208 -0.000552509 39.5491 0.756202 40.8969 2.10374C42.2448 3.45126 43.0022 5.27913 43.0022 7.1851V35.8127C43.0022 39.7822 39.7842 43 35.8149 43H7.1851C3.21654 42.9988 0 39.7814 0 35.8127V7.1851C0 3.21687 3.21687 3.0266e-07 7.1851 3.0266e-07ZM32.9212 35.1828C34.1737 35.1828 35.1891 34.1674 35.1891 32.9149L35.1828 10.0871C35.1828 8.83462 34.1674 7.81932 32.9149 7.81932H10.0892C9.48736 7.81932 8.91023 8.05853 8.48488 8.48427C8.05953 8.91001 7.82086 9.48736 7.82141 10.0892V32.9149C7.82141 34.1674 8.83672 35.1828 10.0892 35.1828H32.9212Z" fill="#94A8B6"/>
<path d="M16.9384 27.3301C16.2235 27.3244 15.647 26.7433 15.647 26.0283V16.9155C15.6453 16.5692 15.7817 16.2364 16.0261 15.9909C16.2704 15.7454 16.6025 15.6074 16.9488 15.6074H26.0742C26.4204 15.608 26.7521 15.7462 26.9964 15.9915C27.2405 16.2369 27.3771 16.5693 27.3759 16.9155V26.0262C27.3771 26.3723 27.2405 26.7048 26.9964 26.9501C26.7521 27.1956 26.4204 27.3338 26.0742 27.3344L16.9384 27.3301Z" fill="#94A8B6"/>
<path d="M64.8829 19.5838C63.5519 19.2208 62.2918 18.8786 61.3133 18.4426C59.5025 17.6331 58.6596 16.5107 58.6596 14.9127C58.6596 11.8917 61.5803 10.5315 64.4887 10.5315C67.2528 10.5315 69.6667 11.6748 71.2878 13.7485L71.3982 13.8904L73.7349 12.0628L73.6223 11.9209C71.4672 9.1796 68.2752 7.67749 64.6304 7.67749C62.2042 7.67749 59.9801 8.33258 58.3717 9.52383C56.5609 10.8486 55.6053 12.7701 55.6053 15.0629C55.6053 20.3934 60.6247 21.6929 64.6597 22.7382C68.7426 23.8148 71.244 24.6326 71.244 27.7452C71.244 30.8099 68.7654 32.7899 64.9308 32.7899C63.0345 32.7899 59.5234 32.2872 57.3161 28.9158L57.2139 28.757L54.7562 30.5367L54.8522 30.6807C56.9385 33.8393 60.5393 35.6523 64.7432 35.6523C70.4532 35.6523 74.2919 32.4289 74.2919 27.6347C74.2919 22.1478 69.0721 20.727 64.8829 19.5838Z" fill="#94A8B6"/>
<path fill-rule="evenodd" clip-rule="evenodd" d="M92.9182 18.476V15.5907H95.6657V42.9959H92.9182V32.2891C91.3492 34.4401 88.996 35.6167 86.2295 35.6167C81.0056 35.6167 77.3545 31.4338 77.3545 25.394C77.3545 19.3543 81.0138 15.1379 86.2295 15.1379C88.9772 15.1379 91.3305 16.3208 92.9182 18.476ZM80.2504 25.3606C80.2504 30.9518 83.4527 32.9442 86.4506 32.9442L86.4568 32.9462C90.3812 32.9462 92.9182 29.9421 92.9182 25.3606C92.9182 20.7791 90.377 17.8167 86.4506 17.8167C81.8797 17.8167 80.2504 21.7138 80.2504 25.3606Z" fill="#94A8B6"/>
<path d="M113.831 15.5907V26.4079C113.831 30.1946 111.237 32.9443 107.666 32.9443C104.699 32.9443 103.256 31.1834 103.256 27.5638V15.5907H100.508V28.125C100.508 32.819 103.059 35.6208 107.332 35.6208C109.994 35.6208 112.281 34.4923 113.833 32.4289V35.1744H116.58V15.5907H113.831Z" fill="#94A8B6"/>
<path fill-rule="evenodd" clip-rule="evenodd" d="M121.754 17.6477C123.78 16.0559 126.53 15.1442 129.294 15.1442C133.661 15.1442 136.266 17.316 136.258 20.9585V35.1786H133.509V33.0068C132.121 34.7445 130.114 35.6251 127.531 35.6251C123.323 35.6251 120.707 33.3238 120.707 29.6229C120.707 24.8098 125.243 24.0545 127.175 23.7332C127.49 23.6812 127.815 23.6312 128.14 23.581H128.141L128.152 23.5792C130.792 23.1729 133.517 22.7536 133.517 20.5143C133.517 17.9794 130.227 17.7833 129.219 17.7833C127.439 17.7833 124.926 18.3111 123.217 19.7923L123.061 19.9279L121.625 17.7499L121.754 17.6477ZM123.576 29.4684C123.576 32.6063 126.53 32.9462 127.8 32.9462H127.802C130.565 32.9462 133.521 31.4734 133.515 27.3343V24.501C132.175 25.3475 130.267 25.6782 128.566 25.9731L128.537 25.9782L127.684 26.1305C124.959 26.6353 123.576 27.2862 123.576 29.4684Z" fill="#94A8B6"/>
<path d="M152.176 15.9599C151.523 15.4946 150.495 15.2172 149.422 15.2172C147.219 15.2461 145.157 16.3084 143.854 18.0858V15.5823H141.107V35.164H143.854V24.6909C143.854 20.0469 146.464 17.9669 149.049 17.9669C149.806 17.9568 150.555 18.1157 151.242 18.4321L151.427 18.5302L152.297 16.0392L152.176 15.9599Z" fill="#94A8B6"/>
<path fill-rule="evenodd" clip-rule="evenodd" d="M152.982 25.4356C152.982 19.3772 156.76 15.1442 162.161 15.1442C167.364 15.1442 171.001 18.9015 170.99 24.2903C170.989 24.7588 170.963 25.2267 170.913 25.6923L170.896 25.8529H155.875C155.944 30.1652 158.539 32.9462 162.522 32.9462C164.805 32.9462 166.782 32.018 168.09 30.33L168.209 30.1758L170.199 31.949L170.089 32.0825C168.766 33.6952 166.354 35.6188 162.37 35.6188C156.758 35.6188 152.982 31.5276 152.982 25.4356ZM162.086 17.7812C158.729 17.7812 156.349 19.9905 155.977 23.4309H168.086C167.848 20.6644 166.158 17.7812 162.086 17.7812Z" fill="#94A8B6"/>
</g>
<defs>
<clipPath id="clip0_51_2089">
<rect width="172" height="43" fill="white"/>
</clipPath>
</defs>
</svg>
