<svg width="172" height="172" viewBox="0 0 172 172" fill="none" xmlns="http://www.w3.org/2000/svg">
<circle cx="86" cy="86" r="82" stroke="white" stroke-width="8"/>
<path d="M72.2694 115.374V69.3707H56.9784V115.374H72.271H72.2694ZM64.6271 63.0908C69.9582 63.0908 73.2772 59.5582 73.2772 55.1436C73.1774 50.6283 69.9582 47.1943 64.7285 47.1943C59.4951 47.1943 56.0771 50.6283 56.0771 55.1432C56.0771 59.5578 59.3949 63.0904 64.5269 63.0904H64.6259L64.6271 63.0908ZM80.7331 115.374H96.0228V89.6866C96.0228 88.3135 96.1226 86.9368 96.5265 85.9561C97.6314 83.2079 100.147 80.3631 104.372 80.3631C109.904 80.3631 112.118 84.5814 112.118 90.7663V115.374H127.407V88.9973C127.407 74.8675 119.865 68.2922 109.805 68.2922C101.557 68.2922 97.9348 72.9021 95.9222 76.0418H96.024V69.3723H80.7339C80.9335 73.688 80.7327 115.376 80.7327 115.376L80.7331 115.374Z" fill="white"/>
</svg>
