<svg width="241" height="241" viewBox="0 0 241 241" fill="none" xmlns="http://www.w3.org/2000/svg">
<circle cx="122" cy="122" r="103" stroke="white" stroke-width="8"/>
<path d="M114.606 60.653C95.0452 62.8883 75.5535 79.0887 74.749 102.23C74.2434 116.36 78.1624 126.96 91.2986 129.937C96.999 119.643 89.4597 117.372 88.2875 109.925C83.472 79.4064 122.674 58.5941 143.188 79.9005C157.382 94.6538 148.038 140.043 125.145 135.325C103.217 130.819 135.879 94.6891 118.375 87.5948C104.147 81.83 96.5852 105.231 103.331 116.854C99.378 136.843 90.8618 155.679 94.3097 180.75C105.492 172.444 109.262 156.538 112.353 139.949C117.973 143.443 120.973 147.079 128.144 147.643C154.589 149.737 169.357 120.619 165.749 93.7597C162.542 69.9473 139.327 57.8294 114.606 60.653Z" fill="white"/>
</svg>
