<svg width="184" height="184" viewBox="0 0 184 184" fill="none" xmlns="http://www.w3.org/2000/svg">
<circle cx="92" cy="92" r="88" stroke="white" stroke-width="8"/>
<path d="M144.899 65.1103C143.635 60.3116 139.894 56.526 135.134 55.2286C126.528 52.9004 91.9998 52.9004 91.9998 52.9004C91.9998 52.9004 57.4888 52.9004 48.8655 55.2286C44.1235 56.5083 40.3826 60.2938 39.1005 65.1103C36.7998 73.8189 36.7998 92.0004 36.7998 92.0004C36.7998 92.0004 36.7998 110.182 39.1005 118.891C40.3651 123.689 44.1059 127.475 48.8655 128.772C57.4888 131.1 91.9998 131.1 91.9998 131.1C91.9998 131.1 126.528 131.1 135.134 128.772C139.876 127.493 143.617 123.707 144.899 118.891C147.2 110.182 147.2 92.0004 147.2 92.0004C147.2 92.0004 147.2 73.8189 144.899 65.1103Z" fill="white"/>
<path d="M80.9703 108.76L109.65 92.0004L80.9703 75.2407V108.76Z" fill="#F36A1C"/>
</svg>
