<svg width="190" height="188" viewBox="0 0 190 188" fill="none" xmlns="http://www.w3.org/2000/svg">
<path d="M181.581 94.0003C181.581 141.267 143.308 179.577 96.1047 179.577C48.9014 179.577 10.6279 141.267 10.6279 94.0003C10.6279 46.7335 48.9014 8.42383 96.1047 8.42383C143.308 8.42383 181.581 46.7335 181.581 94.0003Z" stroke="white" stroke-width="8"/>
<path d="M47.5005 137.241L54.3165 112.187C48.8196 102.427 47.0731 91.0375 49.3977 80.1091C51.7222 69.1808 57.9619 59.4464 66.9716 52.6921C75.9813 45.9378 87.1567 42.6167 98.4472 43.3382C109.738 44.0598 120.386 48.7756 128.438 56.6203C136.49 64.465 141.405 74.9123 142.282 86.0453C143.159 97.1782 139.939 108.25 133.213 117.229C126.486 126.208 116.705 132.491 105.663 134.927C94.6215 137.362 83.0602 135.786 73.1009 130.488L47.5005 137.241ZM74.3353 121.112L75.9185 122.039C83.1323 126.259 91.5578 128.005 99.8821 127.006C108.206 126.006 115.962 122.317 121.94 116.513C127.918 110.709 131.783 103.116 132.933 94.9182C134.082 86.72 132.451 78.3767 128.295 71.1887C124.138 64.0006 117.689 58.3715 109.953 55.1786C102.216 51.9856 93.6266 51.4082 85.5228 53.5363C77.419 55.6644 70.2561 60.3784 65.1504 66.9438C60.0446 73.5092 57.2827 81.5572 57.2952 89.8335C57.2884 96.6959 59.2113 103.426 62.85 109.273L63.8429 110.889L60.0323 124.873L74.3353 121.112Z" fill="white"/>
<path fill-rule="evenodd" clip-rule="evenodd" d="M112.762 96.2662C111.834 95.5274 110.747 95.0073 109.584 94.7457C108.422 94.4841 107.214 94.4878 106.053 94.7566C104.309 95.4716 103.182 98.1731 102.055 99.5238C101.817 99.8476 101.468 100.075 101.073 100.162C100.677 100.25 100.263 100.193 99.908 100.001C93.5222 97.5321 88.1696 93.0053 84.7195 87.1554C84.4253 86.7904 84.286 86.3269 84.331 85.8625C84.3761 85.3982 84.6019 84.9692 84.961 84.6659C86.2181 83.4377 87.141 81.9165 87.6445 80.2429C87.7563 78.397 87.3278 76.5582 86.4101 74.946C85.7007 72.6856 84.3505 70.673 82.5191 69.1458C81.5745 68.7265 80.5271 68.5859 79.5034 68.741C78.4797 68.8961 77.5233 69.3402 76.7496 70.0198C75.4064 71.1635 74.3403 72.59 73.6298 74.1943C72.9192 75.7985 72.5823 77.5397 72.6439 79.2895C72.648 80.2721 72.7742 81.2505 73.0196 82.2028C73.6427 84.4908 74.6009 86.6768 75.864 88.6915C76.7753 90.2349 77.7696 91.729 78.8427 93.1675C82.33 97.8923 86.7136 101.904 91.7502 104.98C94.2777 106.543 96.9789 107.813 99.8007 108.767C102.732 110.078 105.968 110.582 109.166 110.224C110.988 109.951 112.714 109.241 114.193 108.156C115.672 107.071 116.857 105.644 117.646 104C118.109 103.007 118.25 101.897 118.048 100.822C117.565 98.6233 114.587 97.3256 112.762 96.2662Z" fill="white"/>
</svg>
